<svg xmlns="http://www.w3.org/2000/svg" width="84" height="84" viewBox="0 0 84 84">
  <path fill="#fff" d="M0 0h84v84H0z"/>
  <path d="M3 3h3v3H3zm3 0h4v3H6zm4 0h3v3h-3zm3 0h3v3h-3zm3 0h3v3h-3zm3 0h3v3h-3zm3 0h3v3h-3zm16 0h3v3h-3zm3 0h3v3h-3zm6 0h3v3h-3zm5 0h4v3h-4zm7 0h3v3h-3zm3 0h3v3h-3zm3 0h3v3h-3zm3 0h3v3h-3zm3 0h3v3h-3zm3 0h4v3h-4zm4 0h3v3h-3zM3 6h3v3H3zm19 0h3v3h-3zm9 0h4v3h-4zm4 0h3v3h-3zm9 0h3v3h-3zm3 0h3v3h-3zm5 0h4v3h-4zm7 0h3v3h-3zm19 0h3v3h-3zM3 9h3v4H3zm7 0h3v4h-3zm3 0h3v4h-3zm3 0h3v4h-3zm6 0h3v4h-3zm19 0h3v4h-3zm6 0h3v4h-3zm5 0h4v4h-4zm7 0h3v4h-3zm6 0h3v4h-3zm3 0h3v4h-3zm3 0h3v4h-3zm7 0h3v4h-3zM3 13h3v3H3zm7 0h3v3h-3zm3 0h3v3h-3zm3 0h3v3h-3zm6 0h3v3h-3zm7 0h2v3h-2zm12 0h3v3h-3zm3 0h3v3h-3zm6 0h2v3h-2zm2 0h4v3h-4zm7 0h3v3h-3zm6 0h3v3h-3zm3 0h3v3h-3zm3 0h3v3h-3zm7 0h3v3h-3zM3 16h3v3H3zm7 0h3v3h-3zm3 0h3v3h-3zm3 0h3v3h-3zm6 0h3v3h-3zm7 0h2v3h-2zm2 0h4v3h-4zm21 0h4v3h-4zm7 0h3v3h-3zm6 0h3v3h-3zm3 0h3v3h-3zm3 0h3v3h-3zm7 0h3v3h-3zM3 19h3v3H3zm19 0h3v3h-3zm16 0h3v3h-3zm3 0h3v3h-3zm3 0h3v3h-3zm15 0h3v3h-3zm19 0h3v3h-3zM3 22h3v3H3zm3 0h4v3H6zm4 0h3v3h-3zm3 0h3v3h-3zm3 0h3v3h-3zm3 0h3v3h-3zm3 0h3v3h-3zm7 0h2v3h-2zm6 0h3v3h-3zm6 0h3v3h-3zm6 0h3v3h-3zm5 0h4v3h-4zm7 0h3v3h-3zm3 0h3v3h-3zm3 0h3v3h-3zm3 0h3v3h-3zm3 0h3v3h-3zm3 0h4v3h-4zm4 0h3v3h-3zm-43 3h3v3h-3zm3 0h3v3h-3zm14 0h4v3h-4zM3 28h3v3H3zm3 0h4v3H6zm13 0h3v3h-3zm3 0h3v3h-3zm3 0h4v3h-4zm6 0h4v3h-4zm7 0h3v3h-3zm3 0h3v3h-3zm3 0h3v3h-3zm3 0h3v3h-3zm3 0h2v3h-2zm2 0h4v3h-4zm13 0h3v3h-3zm3 0h3v3h-3zm-55 3h3v3h-3zm6 0h3v3h-3zm6 0h4v3h-4zm4 0h2v3h-2zm2 0h4v3h-4zm10 0h3v3h-3zm9 0h2v3h-2zm12 0h3v3h-3zm3 0h3v3h-3zm3 0h3v3h-3zm3 0h3v3h-3zm3 0h4v3h-4zM6 34h4v3H6zm4 0h3v3h-3zm3 0h3v3h-3zm3 0h3v3h-3zm3 0h3v3h-3zm3 0h3v3h-3zm3 0h4v3h-4zm10 0h3v3h-3zm15 0h2v3h-2zm6 0h3v3h-3zm3 0h3v3h-3zm6 0h3v3h-3zm3 0h3v3h-3zm6 0h4v3h-4zm4 0h3v3h-3zm-59 3h3v3h-3zm6 0h4v3h-4zm4 0h2v3h-2zm2 0h4v3h-4zm10 0h3v3h-3zm9 0h2v3h-2zm2 0h4v3h-4zm4 0h3v3h-3zm3 0h3v3h-3zm3 0h3v3h-3zm3 0h3v3h-3zm3 0h3v3h-3zm10 0h3v3h-3zM3 40h3v3H3zm3 0h4v3H6zm7 0h3v3h-3zm3 0h3v3h-3zm6 0h3v3h-3zm3 0h4v3h-4zm4 0h2v3h-2zm2 0h4v3h-4zm21 0h4v3h-4zm7 0h3v3h-3zm3 0h3v3h-3zm16 0h3v3h-3zM3 43h3v3H3zm3 0h4v3H6zm13 0h3v3h-3zm6 0h4v3h-4zm4 0h2v3h-2zm2 0h4v3h-4zm7 0h3v3h-3zm9 0h3v3h-3zm3 0h2v3h-2zm12 0h3v3h-3zm12 0h4v3h-4zM3 46h3v3H3zm7 0h3v3h-3zm3 0h3v3h-3zm3 0h3v3h-3zm6 0h3v3h-3zm3 0h4v3h-4zm6 0h4v3h-4zm4 0h3v3h-3zm6 0h3v3h-3zm3 0h3v3h-3zm6 0h2v3h-2zm2 0h4v3h-4zm4 0h3v3h-3zm6 0h3v3h-3zm3 0h3v3h-3zm3 0h3v3h-3zm6 0h4v3h-4zm4 0h3v3h-3zM3 49h3v3H3zm7 0h3v3h-3zm3 0h3v3h-3zm12 0h4v3h-4zm4 0h2v3h-2zm2 0h4v3h-4zm16 0h3v3h-3zm3 0h2v3h-2zm2 0h4v3h-4zm7 0h3v3h-3zm3 0h3v3h-3zm9 0h3v3h-3zm7 0h3v3h-3zM3 52h3v3H3zm10 0h3v3h-3zm3 0h3v3h-3zm3 0h3v3h-3zm3 0h3v3h-3zm3 0h4v3h-4zm10 0h3v3h-3zm9 0h3v3h-3zm3 0h3v3h-3zm5 0h4v3h-4zm4 0h3v3h-3zm3 0h3v3h-3zm3 0h3v3h-3zm3 0h3v3h-3zm6 0h3v3h-3zm-42 3h2v4h-2zm2 0h4v4h-4zm4 0h3v4h-3zm3 0h3v4h-3zm6 0h3v4h-3zm8 0h4v4h-4zm13 0h3v4h-3zm6 0h3v4h-3zM3 59h3v3H3zm3 0h4v3H6zm4 0h3v3h-3zm3 0h3v3h-3zm3 0h3v3h-3zm3 0h3v3h-3zm3 0h3v3h-3zm7 0h2v3h-2zm6 0h3v3h-3zm3 0h3v3h-3zm3 0h3v3h-3zm11 0h4v3h-4zm7 0h3v3h-3zm6 0h3v3h-3zm3 0h3v3h-3zm10 0h3v3h-3zM3 62h3v3H3zm19 0h3v3h-3zm7 0h2v3h-2zm2 0h4v3h-4zm7 0h3v3h-3zm3 0h3v3h-3zm6 0h3v3h-3zm3 0h2v3h-2zm2 0h4v3h-4zm13 0h3v3h-3zm9 0h4v3h-4zM3 65h3v3H3zm7 0h3v3h-3zm3 0h3v3h-3zm3 0h3v3h-3zm6 0h3v3h-3zm9 0h4v3h-4zm13 0h3v3h-3zm3 0h3v3h-3zm3 0h2v3h-2zm2 0h4v3h-4zm4 0h3v3h-3zm3 0h3v3h-3zm3 0h3v3h-3zm3 0h3v3h-3zm3 0h3v3h-3zm3 0h3v3h-3zM3 68h3v3H3zm7 0h3v3h-3zm3 0h3v3h-3zm3 0h3v3h-3zm6 0h3v3h-3zm9 0h4v3h-4zm4 0h3v3h-3zm3 0h3v3h-3zm18 0h3v3h-3zm3 0h3v3h-3zm9 0h3v3h-3zm6 0h4v3h-4zm4 0h3v3h-3zM3 71h3v3H3zm7 0h3v3h-3zm3 0h3v3h-3zm3 0h3v3h-3zm6 0h3v3h-3zm9 0h4v3h-4zm4 0h3v3h-3zm17 0h4v3h-4zm10 0h3v3h-3zm9 0h3v3h-3zm7 0h3v3h-3zM3 74h3v3H3zm19 0h3v3h-3zm7 0h2v3h-2zm2 0h4v3h-4zm21 0h4v3h-4zm10 0h3v3h-3zm3 0h3v3h-3zm13 0h3v3h-3zM3 77h3v4H3zm3 0h4v4H6zm4 0h3v4h-3zm3 0h3v4h-3zm3 0h3v4h-3zm3 0h3v4h-3zm3 0h3v4h-3zm7 0h2v4h-2zm2 0h4v4h-4zm4 0h3v4h-3zm3 0h3v4h-3zm3 0h3v4h-3zm11 0h4v4h-4zm7 0h3v4h-3zm9 0h3v4h-3zm10 0h3v4h-3z"/>
</svg>
